<svg xmlns="http://www.w3.org/2000/svg" version="1.2" viewBox="110 90 170 170"><defs><clipPath id="a"><path d="M122.121 118H207v95h-84.879Zm0 0"/></clipPath><clipPath id="b"><path d="M122.121 91H190v62h-67.879Zm0 0"/></clipPath><clipPath id="c"><path d="M168 97h83v122.816h-83Zm0 0"/></clipPath></defs><g clip-path="url(#a)"><path d="M190.332 212.25c3.633-4.188 6.684-7.246 16.184-15.336-4.93-15.66-21.614-29.336-46.938-46.324-24.652-16.54-31.426-24.613-26.851-32-.786 1.308-1.883 3.027-2.618 4.363-2.945 5.902-3.062 6.133-4.351 9.766-1.969 6.422-2.047 6.672-2.715 10.472-.36 2.739-.754 6.403-.918 9.16.723 10.583 11.922 17.645 35.148 31.36 14.696 8.68 31.356 18.512 33.059 28.539" style="stroke:none;fill-rule:nonzero;fill:#c2f2ec;fill-opacity:1"/></g><path d="M187.379 217.145c-.875-5.852-14.262-12.715-31.207-21.403-20.688-10.61-28.555-15.687-31.473-23.074.653 1.945 1.504 4.547 2.258 6.457 2.734 5.996 2.84 6.23 4.84 9.504l1.004 1.57c4.535 5.781 12.043 9.383 33.824 17.985 7.652 3.023 16.328 6.449 20.754 8.96M187.379 217.145c-33.914-10.266-41.973-12.708-47.742-18.25 1.832 1.828 4.332 4.207 6.281 5.91 4.39 3.37 5.066 3.886 9.32 6.414l2.95 1.574c5.019 2.156 14.84 3.621 29.19 4.352" style="stroke:none;fill-rule:nonzero;fill:#c2f2ec;fill-opacity:1"/><g clip-path="url(#b)"><path d="M122.125 152.348c.195-2.75.531-6.422.918-9.157 1.434-6.726 1.46-6.855 2.715-10.472 2.426-6.153 2.523-6.395 4.351-9.766.786-1.308 1.782-3.082 2.618-4.363 4.312-5.567 10.953-8.832 27.492-15.25 10.078-3.906 21.496-8.332 27.394-11.824 9.621 8.285-18.87 24.937-35.894 34.886-20.106 11.75-28.43 16.614-29.594 25.95" style="stroke:none;fill-rule:nonzero;fill:#4ca69e;fill-opacity:1"/></g><path d="m132.8 190.2-1.003-1.571c-3.234-5.723-3.363-5.945-4.84-9.504-.703-1.93-1.656-4.496-2.258-6.457-1.676-9.262 6.508-15.637 28.586-30.195 43.82-28.903 55.367-46.047 34.328-50.957 17.403 1.953 38.649 15.074-5.527 50.78-14.559 11.774-30.996 21.102-44.512 34.235-7.953 7.73-6.265 10.883-4.773 13.668" style="stroke:none;fill-rule:nonzero;fill:#4ca69e;fill-opacity:1"/><path d="M199.535 91.207c16.098 2.93 77.848 31.715-17.293 97.77-29.492 20.48-29.492 20.48-24.054 23.816l-2.95-1.574c-4.468-2.739-5.394-3.313-9.32-6.414-1.938-1.72-4.461-4.07-6.281-5.91-5.297-6.903 2.277-12.567 27.367-31.329 97.164-72.652 21.418-76.05 20.61-76.05 4.085-.551 8.073-.641 11.921-.309" style="stroke:none;fill-rule:nonzero;fill:#4ca69e;fill-opacity:1"/><g clip-path="url(#c)"><path d="M219.754 97.445c4.316 2.649 7.172 4.403 12.113 8.852 4.371 4.344 4.727 4.7 7.293 7.937 3.73 5.184 3.953 5.496 5.84 8.922.71 1.434 1.707 3.328 2.355 4.79 8.286 21.28.676 38.261-7.167 48.757-5.297 7.098-17.711 23.715-57.954 41.074-2.808 1.211-2.812 1.215-3.043 1.43l-1.238-.172c-2.367-.383-2.457-.394-3.738-.66-1.281-.29-2.985-.7-4.258-1.031-.488-.2-.996-.785-1.219-1.266.934-1.723 2.614-2.89 12.828-8.93 16.774-9.914 47.993-28.367 58.364-52.867 13.402-31.68-7.301-49.437-20.836-57.203l.66.367" style="stroke:none;fill-rule:nonzero;fill:#2f5e55;fill-opacity:1"/></g><g style="fill:#2f5e55;fill-opacity:1"><path d="M5.063.11C4.457.11 3.89 0 3.359-.22a4.458 4.458 0 0 1-1.39-.953 4.546 4.546 0 0 1-.938-1.39 4.34 4.34 0 0 1-.328-1.704c0-.601.11-1.164.328-1.687.227-.531.54-.992.938-1.39a4.525 4.525 0 0 1 1.39-.954 4.294 4.294 0 0 1 1.704-.344c.82 0 1.566.211 2.234.625a4.376 4.376 0 0 1 1.578 1.594l-.781.438a3.31 3.31 0 0 0-1.25-1.25 3.386 3.386 0 0 0-1.782-.485 3.36 3.36 0 0 0-1.734.469A3.425 3.425 0 0 0 2.078-6a3.32 3.32 0 0 0-.469 1.734c0 .649.157 1.235.47 1.766.312.523.726.938 1.25 1.25.53.305 1.108.453 1.733.453.657 0 1.25-.16 1.782-.484.539-.32.957-.742 1.25-1.266l.781.453A4.376 4.376 0 0 1 7.297-.5a4.219 4.219 0 0 1-2.234.61Zm0 0" style="stroke:none" transform="translate(156.164 238.242)"/></g><g style="fill:#2f5e55;fill-opacity:1"><path d="M4.766-8.516v6.454c0 .667-.2 1.199-.594 1.593-.399.387-.918.578-1.563.578-.593 0-1.086-.164-1.468-.5C.754-.723.53-1.18.469-1.766l.922-.187c.039.344.171.625.39.844.227.21.504.312.828.312.364 0 .66-.117.891-.36.238-.25.36-.581.36-1v-5.452h-3v-.907Zm0 0" style="stroke:none" transform="translate(167.379 238.242)"/></g><g style="fill:#2f5e55;fill-opacity:1"><path d="M5.234-4.313a2.3 2.3 0 0 1 1.094.75c.29.356.438.793.438 1.313 0 .438-.106.828-.313 1.172-.21.344-.492.61-.844.797A2.473 2.473 0 0 1 4.438 0H1.03v-8.516h3.094c.438 0 .832.102 1.188.297.351.188.632.453.843.797a2.1 2.1 0 0 1 .328 1.172c0 .46-.117.855-.343 1.188a2.147 2.147 0 0 1-.907.75Zm.344-1.859c0-.414-.152-.758-.453-1.031a1.594 1.594 0 0 0-1.094-.406H1.938v2.906H4.03c.426 0 .79-.14 1.094-.422.3-.281.453-.629.453-1.047ZM4.312-.906c.415 0 .774-.133 1.079-.406.3-.27.453-.614.453-1.032A1.38 1.38 0 0 0 5.39-3.39a1.537 1.537 0 0 0-1.079-.421H1.938v2.906Zm0 0" style="stroke:none" transform="translate(180.181 238.242)"/></g><g style="fill:#2f5e55;fill-opacity:1"><path d="M1.938-.906h3.171V0H1.031v-8.516h.907Zm0 0" style="stroke:none" transform="translate(189.482 238.242)"/></g><g style="fill:#2f5e55;fill-opacity:1"><path d="M5.063.11C4.457.11 3.89 0 3.359-.22a4.458 4.458 0 0 1-1.39-.953 4.546 4.546 0 0 1-.938-1.39 4.34 4.34 0 0 1-.328-1.704c0-.601.11-1.164.328-1.687.227-.531.54-.992.938-1.39a4.525 4.525 0 0 1 1.39-.954 4.294 4.294 0 0 1 1.704-.344c.613 0 1.18.118 1.703.344.53.23.992.547 1.39.953.406.399.719.86.938 1.39.226.524.344 1.087.344 1.688 0 .618-.118 1.184-.344 1.704a4.284 4.284 0 0 1-.938 1.39c-.398.406-.86.727-1.39.953A4.368 4.368 0 0 1 5.062.11Zm0-.907a3.408 3.408 0 0 0 3-1.703 3.411 3.411 0 0 0 .468-1.766A3.32 3.32 0 0 0 8.062-6a3.311 3.311 0 0 0-1.25-1.25 3.345 3.345 0 0 0-1.75-.469 3.36 3.36 0 0 0-1.734.469A3.425 3.425 0 0 0 2.078-6a3.32 3.32 0 0 0-.469 1.734c0 .649.157 1.235.47 1.766.312.523.726.938 1.25 1.25.53.305 1.108.453 1.733.453Zm0 0" style="stroke:none" transform="translate(196.6 238.242)"/></g><g style="fill:#2f5e55;fill-opacity:1"><path d="M5.094-4.516h4.39v.25c0 .618-.117 1.184-.343 1.704-.23.523-.547.984-.954 1.39-.398.406-.859.727-1.39.953A4.332 4.332 0 0 1 5.109.11C4.504.11 3.938 0 3.406-.219a4.243 4.243 0 0 1-1.39-.953 4.546 4.546 0 0 1-.938-1.39 4.147 4.147 0 0 1-.344-1.704c0-.601.114-1.164.344-1.687.227-.531.54-.992.938-1.39a4.304 4.304 0 0 1 3.093-1.298c.813 0 1.551.211 2.22.625a4.376 4.376 0 0 1 1.577 1.594l-.781.438a3.31 3.31 0 0 0-1.25-1.25 3.36 3.36 0 0 0-1.766-.485c-.636 0-1.218.157-1.75.469A3.425 3.425 0 0 0 2.11-6a3.32 3.32 0 0 0-.468 1.734c0 .649.156 1.235.468 1.766.313.523.727.938 1.25 1.25a3.45 3.45 0 0 0 1.75.453 3.4 3.4 0 0 0 1.594-.375c.477-.25.879-.586 1.203-1.016.32-.437.524-.925.61-1.468H5.094Zm0 0" style="stroke:none" transform="translate(208.623 238.242)"/></g></svg>