<svg xmlns="http://www.w3.org/2000/svg" xmlns:xlink="http://www.w3.org/1999/xlink" width="500" zoomAndPan="magnify" viewBox="110 90 170 170" height="500" preserveAspectRatio="xMidYMid meet" version="1.2"><defs><clipPath id="9a0af3d0bc"><path d="M 122.121094 118 L 207 118 L 207 213 L 122.121094 213 Z M 122.121094 118 "/></clipPath><clipPath id="ae15a7b6fe"><path d="M 122.121094 91 L 190 91 L 190 153 L 122.121094 153 Z M 122.121094 91 "/></clipPath><clipPath id="02cc5f53c0"><path d="M 168 97 L 251 97 L 251 219.816406 L 168 219.816406 Z M 168 97 "/></clipPath></defs><g id="1593bbd2a3"><g clip-rule="nonzero" clip-path="url(#9a0af3d0bc)"><path style=" stroke:none;fill-rule:nonzero;fill:#c2f2ec;fill-opacity:1;" d="M 190.332031 212.25 C 193.964844 208.0625 197.015625 205.003906 206.515625 196.914062 C 201.585938 181.253906 184.902344 167.578125 159.578125 150.589844 C 134.925781 134.050781 128.152344 125.976562 132.726562 118.589844 C 131.941406 119.898438 130.84375 121.617188 130.109375 122.953125 C 127.164062 128.855469 127.046875 129.085938 125.757812 132.71875 C 123.789062 139.140625 123.710938 139.390625 123.042969 143.191406 C 122.683594 145.929688 122.289062 149.59375 122.125 152.351562 C 122.847656 162.933594 134.046875 169.996094 157.273438 183.710938 C 171.96875 192.390625 188.628906 202.222656 190.332031 212.25 "/></g><path style=" stroke:none;fill-rule:nonzero;fill:#c2f2ec;fill-opacity:1;" d="M 187.378906 217.144531 C 186.503906 211.292969 173.117188 204.429688 156.171875 195.742188 C 135.484375 185.132812 127.617188 180.054688 124.699219 172.667969 C 125.351562 174.613281 126.203125 177.214844 126.957031 179.125 C 129.691406 185.121094 129.796875 185.355469 131.796875 188.628906 L 132.800781 190.199219 C 137.335938 195.980469 144.84375 199.582031 166.625 208.183594 C 174.277344 211.207031 182.953125 214.632812 187.378906 217.144531 "/><path style=" stroke:none;fill-rule:nonzero;fill:#c2f2ec;fill-opacity:1;" d="M 187.378906 217.144531 C 153.464844 206.878906 145.40625 204.4375 139.636719 198.894531 C 141.46875 200.722656 143.96875 203.101562 145.917969 204.804688 C 150.308594 208.175781 150.984375 208.691406 155.238281 211.21875 L 158.1875 212.792969 C 163.207031 214.949219 173.027344 216.414062 187.378906 217.144531 "/><g clip-rule="nonzero" clip-path="url(#ae15a7b6fe)"><path style=" stroke:none;fill-rule:nonzero;fill:#4ca69e;fill-opacity:1;" d="M 122.125 152.347656 C 122.320312 149.597656 122.65625 145.925781 123.042969 143.191406 C 124.476562 136.464844 124.503906 136.335938 125.757812 132.71875 C 128.183594 126.566406 128.28125 126.324219 130.109375 122.953125 C 130.894531 121.644531 131.890625 119.871094 132.726562 118.589844 C 137.039062 113.023438 143.679688 109.757812 160.21875 103.339844 C 170.296875 99.433594 181.714844 95.007812 187.613281 91.515625 C 197.234375 99.800781 168.742188 116.453125 151.71875 126.402344 C 131.613281 138.152344 123.289062 143.015625 122.125 152.351562 "/></g><path style=" stroke:none;fill-rule:nonzero;fill:#4ca69e;fill-opacity:1;" d="M 132.800781 190.199219 L 131.796875 188.628906 C 128.5625 182.90625 128.433594 182.683594 126.957031 179.125 C 126.253906 177.195312 125.300781 174.628906 124.699219 172.667969 C 123.023438 163.40625 131.207031 157.03125 153.285156 142.472656 C 197.105469 113.570312 208.652344 96.425781 187.613281 91.515625 C 205.015625 93.46875 226.261719 106.589844 182.085938 142.296875 C 167.527344 154.070312 151.089844 163.398438 137.574219 176.53125 C 129.621094 184.261719 131.308594 187.414062 132.800781 190.199219 "/><path style=" stroke:none;fill-rule:nonzero;fill:#4ca69e;fill-opacity:1;" d="M 199.535156 91.207031 C 215.632812 94.136719 277.382812 122.921875 182.242188 188.976562 C 152.75 209.457031 152.75 209.457031 158.1875 212.792969 L 155.238281 211.21875 C 150.769531 208.480469 149.84375 207.90625 145.917969 204.804688 C 143.980469 203.085938 141.457031 200.734375 139.636719 198.894531 C 134.339844 191.992188 141.914062 186.328125 167.003906 167.566406 C 264.167969 94.914062 188.421875 91.515625 187.613281 91.515625 C 191.699219 90.964844 195.6875 90.875 199.535156 91.207031 "/><g clip-rule="nonzero" clip-path="url(#02cc5f53c0)"><path style=" stroke:none;fill-rule:nonzero;fill:#2f5e55;fill-opacity:1;" d="M 219.753906 97.445312 C 224.070312 100.09375 226.925781 101.847656 231.867188 106.296875 C 236.238281 110.640625 236.59375 110.996094 239.160156 114.234375 C 242.890625 119.417969 243.113281 119.730469 245 123.15625 C 245.710938 124.589844 246.707031 126.484375 247.355469 127.945312 C 255.640625 149.226562 248.03125 166.207031 240.1875 176.703125 C 234.890625 183.800781 222.476562 200.417969 182.234375 217.777344 C 179.425781 218.988281 179.421875 218.992188 179.191406 219.207031 L 177.953125 219.035156 C 175.585938 218.652344 175.496094 218.640625 174.214844 218.375 C 172.933594 218.085938 171.230469 217.675781 169.957031 217.34375 C 169.46875 217.144531 168.960938 216.558594 168.738281 216.078125 C 169.671875 214.355469 171.351562 213.1875 181.566406 207.148438 C 198.339844 197.234375 229.558594 178.78125 239.929688 154.28125 C 253.332031 122.601562 232.628906 104.84375 219.09375 97.078125 C 219.3125 97.199219 219.53125 97.320312 219.753906 97.445312 "/></g><g style="fill:#2f5e55;fill-opacity:1;"><g transform="translate(150.620656, 238.241644)"><path style="stroke:none" d="M 5.0625 0.109375 C 4.457031 0.109375 3.890625 0 3.359375 -0.21875 C 2.835938 -0.445312 2.375 -0.765625 1.96875 -1.171875 C 1.570312 -1.578125 1.257812 -2.039062 1.03125 -2.5625 C 0.8125 -3.082031 0.703125 -3.648438 0.703125 -4.265625 C 0.703125 -4.867188 0.8125 -5.429688 1.03125 -5.953125 C 1.257812 -6.484375 1.570312 -6.945312 1.96875 -7.34375 C 2.375 -7.75 2.835938 -8.066406 3.359375 -8.296875 C 3.890625 -8.523438 4.457031 -8.640625 5.0625 -8.640625 C 5.882812 -8.640625 6.628906 -8.429688 7.296875 -8.015625 C 7.972656 -7.609375 8.5 -7.078125 8.875 -6.421875 L 8.09375 -5.984375 C 7.800781 -6.503906 7.382812 -6.921875 6.84375 -7.234375 C 6.3125 -7.554688 5.71875 -7.71875 5.0625 -7.71875 C 4.4375 -7.71875 3.859375 -7.5625 3.328125 -7.25 C 2.804688 -6.945312 2.390625 -6.53125 2.078125 -6 C 1.765625 -5.476562 1.609375 -4.898438 1.609375 -4.265625 C 1.609375 -3.617188 1.765625 -3.03125 2.078125 -2.5 C 2.390625 -1.976562 2.804688 -1.5625 3.328125 -1.25 C 3.859375 -0.945312 4.4375 -0.796875 5.0625 -0.796875 C 5.71875 -0.796875 6.3125 -0.957031 6.84375 -1.28125 C 7.382812 -1.601562 7.800781 -2.023438 8.09375 -2.546875 L 8.875 -2.09375 C 8.5 -1.4375 7.972656 -0.90625 7.296875 -0.5 C 6.628906 -0.09375 5.882812 0.109375 5.0625 0.109375 Z M 5.0625 0.109375 "/></g></g><g style="fill:#2f5e55;fill-opacity:1;"><g transform="translate(161.835888, 238.241644)"><path style="stroke:none" d="M 6.171875 0 L 5.484375 -1.984375 L 1.6875 -1.984375 L 1 0 L 0 0 L 3.078125 -8.515625 L 4.09375 -8.515625 L 7.171875 0 Z M 1.984375 -2.859375 L 5.1875 -2.859375 L 3.59375 -7.4375 Z M 1.984375 -2.859375 "/></g></g><g style="fill:#2f5e55;fill-opacity:1;"><g transform="translate(170.881618, 238.241644)"><path style="stroke:none" d="M 4.484375 -3.890625 L 7 0 L 5.96875 0 L 3.546875 -3.84375 L 1.9375 -3.84375 L 1.9375 0 L 1.03125 0 L 1.03125 -8.515625 L 4.09375 -8.515625 C 4.53125 -8.515625 4.925781 -8.40625 5.28125 -8.1875 C 5.644531 -7.976562 5.929688 -7.691406 6.140625 -7.328125 C 6.347656 -6.972656 6.453125 -6.578125 6.453125 -6.140625 C 6.453125 -5.753906 6.363281 -5.398438 6.1875 -5.078125 C 6.019531 -4.753906 5.789062 -4.488281 5.5 -4.28125 C 5.207031 -4.070312 4.867188 -3.941406 4.484375 -3.890625 Z M 1.9375 -4.71875 L 4.03125 -4.71875 C 4.46875 -4.71875 4.828125 -4.847656 5.109375 -5.109375 C 5.398438 -5.378906 5.546875 -5.726562 5.546875 -6.15625 C 5.546875 -6.582031 5.398438 -6.929688 5.109375 -7.203125 C 4.816406 -7.472656 4.457031 -7.609375 4.03125 -7.609375 L 1.9375 -7.609375 Z M 1.9375 -4.71875 "/></g></g><g style="fill:#2f5e55;fill-opacity:1;"><g transform="translate(179.88481, 238.241644)"><path style="stroke:none" d="M 4.484375 -3.890625 L 7 0 L 5.96875 0 L 3.546875 -3.84375 L 1.9375 -3.84375 L 1.9375 0 L 1.03125 0 L 1.03125 -8.515625 L 4.09375 -8.515625 C 4.53125 -8.515625 4.925781 -8.40625 5.28125 -8.1875 C 5.644531 -7.976562 5.929688 -7.691406 6.140625 -7.328125 C 6.347656 -6.972656 6.453125 -6.578125 6.453125 -6.140625 C 6.453125 -5.753906 6.363281 -5.398438 6.1875 -5.078125 C 6.019531 -4.753906 5.789062 -4.488281 5.5 -4.28125 C 5.207031 -4.070312 4.867188 -3.941406 4.484375 -3.890625 Z M 1.9375 -4.71875 L 4.03125 -4.71875 C 4.46875 -4.71875 4.828125 -4.847656 5.109375 -5.109375 C 5.398438 -5.378906 5.546875 -5.726562 5.546875 -6.15625 C 5.546875 -6.582031 5.398438 -6.929688 5.109375 -7.203125 C 4.816406 -7.472656 4.457031 -7.609375 4.03125 -7.609375 L 1.9375 -7.609375 Z M 1.9375 -4.71875 "/></g></g><g style="fill:#2f5e55;fill-opacity:1;"><g transform="translate(188.888002, 238.241644)"><path style="stroke:none" d="M 6.875 -8.515625 L 3.90625 -4.046875 L 3.90625 0 L 3 0 L 3 -4.03125 L 0.015625 -8.515625 L 1.15625 -8.515625 L 3.453125 -4.984375 L 5.75 -8.515625 Z M 6.875 -8.515625 "/></g></g><g style="fill:#2f5e55;fill-opacity:1;"><g transform="translate(197.650136, 238.241644)"><path style="stroke:none" d=""/></g></g><g style="fill:#2f5e55;fill-opacity:1;"><g transform="translate(202.952401, 238.241644)"><path style="stroke:none" d="M 6.171875 0 L 5.484375 -1.984375 L 1.6875 -1.984375 L 1 0 L 0 0 L 3.078125 -8.515625 L 4.09375 -8.515625 L 7.171875 0 Z M 1.984375 -2.859375 L 5.1875 -2.859375 L 3.59375 -7.4375 Z M 1.984375 -2.859375 "/></g></g><g style="fill:#2f5e55;fill-opacity:1;"><g transform="translate(211.998131, 238.241644)"><path style="stroke:none" d="M 1.9375 -0.90625 L 5.109375 -0.90625 L 5.109375 0 L 1.03125 0 L 1.03125 -8.515625 L 1.9375 -8.515625 Z M 1.9375 -0.90625 "/></g></g><g style="fill:#2f5e55;fill-opacity:1;"><g transform="translate(219.115406, 238.241644)"><path style="stroke:none" d="M 1.9375 -0.90625 L 5.109375 -0.90625 L 5.109375 0 L 1.03125 0 L 1.03125 -8.515625 L 1.9375 -8.515625 Z M 1.9375 -0.90625 "/></g></g><g style="fill:#2f5e55;fill-opacity:1;"><g transform="translate(145.733937, 253.991643)"><path style="stroke:none" d="M 5.09375 -4.515625 L 9.484375 -4.515625 L 9.484375 -4.265625 C 9.484375 -3.648438 9.367188 -3.082031 9.140625 -2.5625 C 8.910156 -2.039062 8.59375 -1.578125 8.1875 -1.171875 C 7.789062 -0.765625 7.328125 -0.445312 6.796875 -0.21875 C 6.273438 0 5.710938 0.109375 5.109375 0.109375 C 4.503906 0.109375 3.9375 0 3.40625 -0.21875 C 2.875 -0.445312 2.410156 -0.765625 2.015625 -1.171875 C 1.617188 -1.578125 1.304688 -2.039062 1.078125 -2.5625 C 0.847656 -3.082031 0.734375 -3.648438 0.734375 -4.265625 C 0.734375 -4.867188 0.847656 -5.429688 1.078125 -5.953125 C 1.304688 -6.484375 1.617188 -6.945312 2.015625 -7.34375 C 2.410156 -7.75 2.875 -8.066406 3.40625 -8.296875 C 3.9375 -8.523438 4.503906 -8.640625 5.109375 -8.640625 C 5.921875 -8.640625 6.660156 -8.429688 7.328125 -8.015625 C 8.003906 -7.609375 8.53125 -7.078125 8.90625 -6.421875 L 8.125 -5.984375 C 7.832031 -6.503906 7.414062 -6.921875 6.875 -7.234375 C 6.34375 -7.554688 5.753906 -7.71875 5.109375 -7.71875 C 4.472656 -7.71875 3.890625 -7.5625 3.359375 -7.25 C 2.835938 -6.945312 2.421875 -6.53125 2.109375 -6 C 1.796875 -5.476562 1.640625 -4.898438 1.640625 -4.265625 C 1.640625 -3.617188 1.796875 -3.03125 2.109375 -2.5 C 2.421875 -1.976562 2.835938 -1.5625 3.359375 -1.25 C 3.890625 -0.945312 4.472656 -0.796875 5.109375 -0.796875 C 5.691406 -0.796875 6.222656 -0.921875 6.703125 -1.171875 C 7.179688 -1.421875 7.582031 -1.757812 7.90625 -2.1875 C 8.226562 -2.625 8.429688 -3.113281 8.515625 -3.65625 L 5.09375 -3.65625 Z M 5.09375 -4.515625 "/></g></g><g style="fill:#2f5e55;fill-opacity:1;"><g transform="translate(157.814137, 253.991643)"><path style="stroke:none" d="M 4.484375 -3.890625 L 7 0 L 5.96875 0 L 3.546875 -3.84375 L 1.9375 -3.84375 L 1.9375 0 L 1.03125 0 L 1.03125 -8.515625 L 4.09375 -8.515625 C 4.53125 -8.515625 4.925781 -8.40625 5.28125 -8.1875 C 5.644531 -7.976562 5.929688 -7.691406 6.140625 -7.328125 C 6.347656 -6.972656 6.453125 -6.578125 6.453125 -6.140625 C 6.453125 -5.753906 6.363281 -5.398438 6.1875 -5.078125 C 6.019531 -4.753906 5.789062 -4.488281 5.5 -4.28125 C 5.207031 -4.070312 4.867188 -3.941406 4.484375 -3.890625 Z M 1.9375 -4.71875 L 4.03125 -4.71875 C 4.46875 -4.71875 4.828125 -4.847656 5.109375 -5.109375 C 5.398438 -5.378906 5.546875 -5.726562 5.546875 -6.15625 C 5.546875 -6.582031 5.398438 -6.929688 5.109375 -7.203125 C 4.816406 -7.472656 4.457031 -7.609375 4.03125 -7.609375 L 1.9375 -7.609375 Z M 1.9375 -4.71875 "/></g></g><g style="fill:#2f5e55;fill-opacity:1;"><g transform="translate(166.817329, 253.991643)"><path style="stroke:none" d="M 5.765625 -7.640625 L 2.015625 -7.640625 L 2.015625 -4.703125 L 5.28125 -4.703125 L 5.28125 -3.8125 L 2.015625 -3.8125 L 2.015625 -0.875 L 5.765625 -0.875 L 5.765625 0 L 1.109375 0 L 1.109375 -8.515625 L 5.765625 -8.515625 Z M 5.765625 -7.640625 "/></g></g><g style="fill:#2f5e55;fill-opacity:1;"><g transform="translate(175.310046, 253.991643)"><path style="stroke:none" d="M 5.765625 -7.640625 L 2.015625 -7.640625 L 2.015625 -4.703125 L 5.28125 -4.703125 L 5.28125 -3.8125 L 2.015625 -3.8125 L 2.015625 -0.875 L 5.765625 -0.875 L 5.765625 0 L 1.109375 0 L 1.109375 -8.515625 L 5.765625 -8.515625 Z M 5.765625 -7.640625 "/></g></g><g style="fill:#2f5e55;fill-opacity:1;"><g transform="translate(183.802763, 253.991643)"><path style="stroke:none" d="M 7.15625 -8.515625 L 8.046875 -8.515625 L 8.046875 0 L 7.203125 0 L 1.9375 -7 L 1.9375 0 L 1.03125 0 L 1.03125 -8.515625 L 1.890625 -8.515625 L 7.15625 -1.515625 Z M 7.15625 -8.515625 "/></g></g><g style="fill:#2f5e55;fill-opacity:1;"><g transform="translate(194.762758, 253.991643)"><path style="stroke:none" d="M 5.0625 0.109375 C 4.457031 0.109375 3.890625 0 3.359375 -0.21875 C 2.835938 -0.445312 2.375 -0.765625 1.96875 -1.171875 C 1.570312 -1.578125 1.257812 -2.039062 1.03125 -2.5625 C 0.8125 -3.082031 0.703125 -3.648438 0.703125 -4.265625 C 0.703125 -4.867188 0.8125 -5.429688 1.03125 -5.953125 C 1.257812 -6.484375 1.570312 -6.945312 1.96875 -7.34375 C 2.375 -7.75 2.835938 -8.066406 3.359375 -8.296875 C 3.890625 -8.523438 4.457031 -8.640625 5.0625 -8.640625 C 5.675781 -8.640625 6.242188 -8.523438 6.765625 -8.296875 C 7.296875 -8.066406 7.757812 -7.75 8.15625 -7.34375 C 8.5625 -6.945312 8.875 -6.484375 9.09375 -5.953125 C 9.320312 -5.429688 9.4375 -4.867188 9.4375 -4.265625 C 9.4375 -3.648438 9.320312 -3.082031 9.09375 -2.5625 C 8.875 -2.039062 8.5625 -1.578125 8.15625 -1.171875 C 7.757812 -0.765625 7.296875 -0.445312 6.765625 -0.21875 C 6.242188 0 5.675781 0.109375 5.0625 0.109375 Z M 5.0625 -0.796875 C 5.707031 -0.796875 6.289062 -0.945312 6.8125 -1.25 C 7.34375 -1.5625 7.757812 -1.976562 8.0625 -2.5 C 8.375 -3.03125 8.53125 -3.617188 8.53125 -4.265625 C 8.53125 -4.898438 8.375 -5.476562 8.0625 -6 C 7.757812 -6.53125 7.34375 -6.945312 6.8125 -7.25 C 6.289062 -7.5625 5.707031 -7.71875 5.0625 -7.71875 C 4.4375 -7.71875 3.859375 -7.5625 3.328125 -7.25 C 2.804688 -6.945312 2.390625 -6.53125 2.078125 -6 C 1.765625 -5.476562 1.609375 -4.898438 1.609375 -4.265625 C 1.609375 -3.617188 1.765625 -3.03125 2.078125 -2.5 C 2.390625 -1.976562 2.804688 -1.5625 3.328125 -1.25 C 3.859375 -0.945312 4.4375 -0.796875 5.0625 -0.796875 Z M 5.0625 -0.796875 "/></g></g><g style="fill:#2f5e55;fill-opacity:1;"><g transform="translate(206.78624, 253.991643)"><path style="stroke:none" d="M 5.75 -8.515625 L 5.75 -7.609375 L 3.390625 -7.609375 L 3.390625 0 L 2.484375 0 L 2.484375 -7.609375 L 0.125 -7.609375 L 0.125 -8.515625 Z M 5.75 -8.515625 "/></g></g><g style="fill:#2f5e55;fill-opacity:1;"><g transform="translate(214.541603, 253.991643)"><path style="stroke:none" d="M 5.765625 -7.640625 L 2.015625 -7.640625 L 2.015625 -4.703125 L 5.28125 -4.703125 L 5.28125 -3.8125 L 2.015625 -3.8125 L 2.015625 -0.875 L 5.765625 -0.875 L 5.765625 0 L 1.109375 0 L 1.109375 -8.515625 L 5.765625 -8.515625 Z M 5.765625 -7.640625 "/></g></g><g style="fill:#2f5e55;fill-opacity:1;"><g transform="translate(223.034321, 253.991643)"><path style="stroke:none" d="M 3.1875 0.109375 C 2.550781 0.109375 1.984375 -0.046875 1.484375 -0.359375 C 0.984375 -0.679688 0.625 -1.101562 0.40625 -1.625 L 1.234375 -2.09375 C 1.390625 -1.707031 1.632812 -1.394531 1.96875 -1.15625 C 2.300781 -0.914062 2.707031 -0.796875 3.1875 -0.796875 C 3.664062 -0.796875 4.070312 -0.914062 4.40625 -1.15625 C 4.738281 -1.40625 4.90625 -1.757812 4.90625 -2.21875 C 4.90625 -2.5625 4.800781 -2.84375 4.59375 -3.0625 C 4.394531 -3.289062 4.132812 -3.476562 3.8125 -3.625 C 3.5 -3.78125 3.164062 -3.925781 2.8125 -4.0625 C 2.46875 -4.207031 2.132812 -4.375 1.8125 -4.5625 C 1.5 -4.75 1.242188 -4.984375 1.046875 -5.265625 C 0.847656 -5.554688 0.75 -5.929688 0.75 -6.390625 C 0.75 -6.847656 0.851562 -7.242188 1.0625 -7.578125 C 1.28125 -7.921875 1.566406 -8.179688 1.921875 -8.359375 C 2.285156 -8.546875 2.6875 -8.640625 3.125 -8.640625 C 3.613281 -8.640625 4.054688 -8.535156 4.453125 -8.328125 C 4.847656 -8.117188 5.160156 -7.863281 5.390625 -7.5625 L 4.6875 -6.96875 C 4.332031 -7.46875 3.820312 -7.71875 3.15625 -7.71875 C 2.757812 -7.71875 2.410156 -7.613281 2.109375 -7.40625 C 1.804688 -7.195312 1.65625 -6.878906 1.65625 -6.453125 C 1.65625 -6.117188 1.753906 -5.847656 1.953125 -5.640625 C 2.148438 -5.429688 2.40625 -5.253906 2.71875 -5.109375 C 3.039062 -4.960938 3.378906 -4.816406 3.734375 -4.671875 C 4.085938 -4.535156 4.421875 -4.367188 4.734375 -4.171875 C 5.054688 -3.984375 5.316406 -3.734375 5.515625 -3.421875 C 5.710938 -3.117188 5.8125 -2.726562 5.8125 -2.25 C 5.8125 -1.75 5.691406 -1.320312 5.453125 -0.96875 C 5.210938 -0.613281 4.894531 -0.34375 4.5 -0.15625 C 4.101562 0.0195312 3.664062 0.109375 3.1875 0.109375 Z M 3.1875 0.109375 "/></g></g></g></svg>